 <svg  version="1.0" xmlns="http://www.w3.org/2000/svg"  width="300.000000pt" height="300.000000pt" viewBox="0 0 300.000000 300.000000"  preserveAspectRatio="xMidYMid meet">  <g transform="translate(0.000000,300.000000) scale(0.050000,-0.050000)" fill="#ffffff" stroke="none"> <path d="M3615 5572 c-41 -15 -97 -42 -124 -60 -65 -42 -71 -41 -71 18 0 31 -11 50 -30 50 -21 0 -30 -21 -30 -69 0 -91 -103 -130 -247 -94 -165 42 -207 15 -89 -57 83 -50 218 -70 295 -43 103 35 75 -29 -36 -85 -369 -188 -743 -963 -743 -1543 l0 -107 -157 156 c-124 124 -182 166 -282 204 -180 69 -199 118 -47 118 83 1 139 14 196 46 137 78 107 155 -32 83 -113 -58 -266 -33 -278 47 -5 36 -17 65 -25 65 -8 -1 -25 -1 -36 -1 -12 0 -20 -16 -18 -35 6 -63 0 -65 -106 -23 -141 56 -273 44 -444 -40 -72 -35 -163 -70 -203 -76 -75 -12 -112 -66 -103 -148 4 -30 -12 -48 -57 -65 -73 -27 -406 -375 -510 -533 -344 -521 -434 -1236 -228 -1819 16 -47 30 -112 30 -143 0 -35 14 -64 38 -77 21 -11 79 -77 128 -147 584 -818 1692 -859 2279 -84 66 88 145 175 174 193 65 39 110 138 93 205 -7 27 7 124 30 216 33 134 58 410 58 647 0 8 19 -9 41 -38 210 -266 748 -454 1129 -394 1410 223 1704 2277 454 3184 -63 45 -141 108 -174 138 -33 31 -82 59 -109 62 -40 6 -55 25 -77 102 l-26 95 -94 0 c-52 0 -151 18 -221 40 -146 46 -242 49 -348 12z m325 -147 c39 -19 79 -55 89 -79 11 -24 78 -78 150 -120 813 -476 746 -1657 -102 -1789 -608 -94 -1179 560 -1008 1153 67 233 252 499 347 500 34 0 45 102 22 228 -20 117 332 192 502 107z m871 -508 c268 -279 431 -670 480 -1144 9 -88 20 -127 31 -110 10 15 18 18 18 6 0 -12 -8 -30 -18 -40 -10 -10 -27 -101 -39 -201 -23 -208 -88 -385 -192 -526 -106 -146 -123 -155 -154 -88 -15 31 -47 65 -72 76 -49 21 -57 40 -25 60 28 18 25 121 -5 146 -77 64 -219 36 -331 -64 -31 -28 -67 -39 -114 -35 -37 3 -110 -13 -161 -35 -96 -43 -148 -39 -110 7 23 28 8 91 -21 91 -10 0 -18 -13 -18 -29 0 -115 -396 -85 -547 41 -31 27 -73 48 -93 48 -93 0 -188 189 -122 242 27 23 35 40 21 49 -12 7 -33 -2 -47 -21 -30 -42 -99 -32 -108 15 -4 22 11 42 40 54 l46 18 -52 2 c-69 1 -148 -80 -113 -118 20 -22 19 -24 -5 -10 -22 11 -21 5 5 -24 19 -22 44 -68 57 -103 12 -34 31 -61 42 -58 12 2 28 -21 37 -51 9 -30 8 -55 -2 -55 -33 0 -62 -156 -38 -202 27 -50 25 -53 -51 -60 -80 -9 -120 16 -89 54 18 21 17 30 -5 39 -16 6 -30 22 -31 35 -6 63 -20 99 -46 115 -16 10 -21 19 -12 19 10 0 8 12 -4 27 -13 15 -16 35 -8 44 8 10 0 7 -17 -7 -28 -21 -31 -18 -22 29 7 38 3 49 -14 38 -14 -8 -42 1 -63 20 -48 43 -48 42 1 -103 53 -154 93 -240 160 -339 29 -45 60 -108 68 -140 31 -122 73 -184 133 -196 38 -8 60 -25 61 -47 1 -22 5 -26 11 -11 6 14 19 20 29 14 10 -6 18 -2 18 8 0 11 18 26 39 33 67 21 125 138 119 239 -6 97 13 138 43 90 26 -40 24 -64 -4 -47 -17 10 -19 3 -10 -23 31 -79 -48 -300 -100 -281 -15 6 -27 -2 -27 -17 0 -16 -10 -35 -23 -43 -15 -9 -18 -5 -8 14 8 15 -4 6 -26 -21 -22 -28 -35 -59 -30 -70 6 -12 -3 -5 -20 15 -16 20 -37 37 -46 38 -132 15 -412 474 -511 837 -85 317 -54 850 74 1255 73 232 99 224 105 -30 6 -215 33 -309 96 -333 17 -7 26 -22 19 -33 -7 -11 2 -26 19 -32 17 -7 31 -25 31 -41 0 -44 127 -286 227 -432 50 -72 86 -135 81 -140 -19 -20 199 -200 297 -246 85 -39 134 -48 255 -46 l150 4 -110 13 -110 13 117 4 c461 13 851 319 945 742 58 259 -5 719 -117 857 -16 21 -17 27 -2 18 82 -49 246 -485 278 -738 4 -31 16 -87 26 -126 11 -38 15 -70 10 -70 -5 0 7 -25 27 -55 38 -58 45 -100 21 -138 -9 -14 -1 -21 20 -20 19 2 33 -9 30 -23 -4 -15 3 -21 15 -14 135 83 -147 905 -457 1327 -169 231 -157 212 -113 188 22 -12 95 -78 161 -148z m-3011 -794 c68 -27 89 -45 85 -74 -24 -178 -4 -254 61 -238 57 14 188 -95 306 -255 267 -363 228 -893 -91 -1241 -103 -113 -141 -138 -141 -92 0 13 -24 74 -54 135 -92 191 -123 299 -106 372 11 51 6 83 -22 129 -21 34 -38 94 -38 132 0 90 -39 105 -127 51 -82 -51 -129 -53 -223 -8 -45 21 -77 27 -89 15 -36 -36 -76 -297 -78 -505 -2 -125 -14 -242 -32 -295 -17 -48 -25 -102 -18 -118 20 -53 -27 -34 -156 64 -483 365 -510 1070 -58 1525 82 82 147 157 144 167 -2 9 23 26 56 39 34 12 61 37 61 55 0 130 324 218 520 142z m-1130 -617 c-241 -401 -406 -1046 -358 -1406 11 -84 48 -145 48 -79 0 12 9 16 20 9 11 -7 21 4 22 24 0 20 4 63 7 96 3 33 12 162 20 286 19 323 55 555 93 593 10 10 18 39 18 64 0 24 10 51 23 59 17 10 19 0 9 -34 -180 -614 208 -1272 788 -1338 482 -55 801 150 1011 652 32 76 62 143 68 148 6 6 23 37 38 70 15 33 36 76 45 95 44 85 -1 561 -63 677 -24 44 -25 132 -2 146 38 23 82 -66 104 -209 37 -242 129 -496 253 -701 l114 -188 -2 -270 c-1 -148 -12 -297 -24 -330 l-21 -60 5 75 c9 117 -17 88 -42 -48 -22 -120 -51 -177 -75 -153 -7 7 6 94 27 194 27 124 33 186 19 195 -13 8 -15 3 -5 -13 12 -20 7 -23 -17 -14 -27 10 -33 -1 -33 -62 -1 -58 -5 -67 -22 -44 -16 23 -19 15 -10 -34 13 -79 -11 -98 -58 -46 -20 22 -61 40 -91 40 -31 0 -60 11 -65 25 -7 20 -17 20 -51 0 -23 -13 -57 -18 -75 -11 -22 8 -30 5 -21 -9 7 -12 -22 -48 -67 -80 -44 -32 -75 -63 -69 -69 5 -6 -4 -22 -21 -36 -16 -14 -30 -19 -30 -12 0 8 -11 4 -25 -8 -117 -99 -150 -120 -127 -83 6 9 -2 16 -18 16 -16 0 -23 -9 -16 -20 8 -12 -1 -15 -22 -7 -19 8 -29 6 -24 -3 6 -10 -11 -27 -39 -40 -33 -15 -49 -15 -49 -1 0 11 -11 14 -25 5 -17 -10 -16 -4 2 19 24 29 24 34 0 34 -15 0 -50 20 -77 45 -41 38 -76 47 -200 51 -255 9 -549 90 -635 176 -30 30 -34 30 -58 -3 -31 -43 -127 -12 -127 41 0 46 -84 37 -183 -20 -48 -27 -80 -50 -71 -50 8 0 -3 -20 -26 -45 -23 -24 -47 -65 -53 -90 -15 -61 -40 -57 -76 12 -39 77 -111 345 -87 331 10 -7 12 61 5 165 -34 461 122 1000 372 1292 111 128 133 120 49 -19z m2811 -457 c32 -16 60 -41 61 -55 13 -154 11 -176 -20 -169 -18 4 -30 18 -27 31 3 13 -3 24 -14 24 -10 0 -21 20 -25 45 -3 24 -21 48 -40 51 -51 10 -65 -78 -30 -190 55 -179 25 -292 -86 -316 -60 -13 -149 20 -131 49 6 9 -3 28 -19 41 -52 43 -40 184 15 176 32 -4 48 -23 55 -64 12 -70 50 -89 77 -38 13 25 9 74 -13 158 -36 139 -13 237 64 269 59 23 67 23 133 -12z m1279 -5 c0 -19 -27 -51 -60 -71 -71 -41 -73 -53 -21 -116 35 -42 43 -44 83 -20 40 24 48 23 72 -8 19 -27 26 -29 26 -8 1 24 4 24 20 -1 30 -47 23 -76 -22 -91 -33 -10 -39 -24 -29 -66 9 -40 7 -45 -8 -23 -30 44 -25 82 14 115 29 24 27 24 -15 -1 -53 -32 -57 -83 -10 -131 22 -23 35 -22 83 6 46 27 69 29 114 12 80 -30 61 -73 -66 -146 -72 -42 -104 -52 -96 -32 8 23 0 29 -32 23 -37 -6 -60 25 -163 218 -151 283 -147 261 -46 323 102 61 156 67 156 17z m60 -33 c0 -14 -28 -38 -61 -52 -52 -21 -60 -33 -51 -77 l11 -52 -24 48 c-21 42 -17 52 31 90 30 24 54 55 54 69 0 14 9 20 20 13 11 -7 20 -24 20 -39z m-3050 -13 c15 -46 3 -68 -28 -49 -11 7 -15 28 -8 47 10 28 7 29 -15 9 -15 -14 -36 -25 -48 -24 -23 0 48 59 71 59 9 0 21 -19 28 -42z m-226 -20 c157 15 287 -107 270 -254 -6 -54 1 -116 18 -156 15 -37 28 -90 28 -119 0 -28 7 -47 16 -41 28 17 124 -197 124 -275 0 -86 -56 -153 -129 -153 -27 0 -54 -9 -61 -20 -6 -10 -41 -14 -76 -9 -35 6 -92 10 -126 9 -70 -1 -88 42 -88 212 0 49 -9 88 -21 88 -15 0 -17 -51 -8 -160 l14 -160 -61 0 c-34 0 -68 10 -75 22 -18 29 28 58 69 43 26 -8 25 -5 -3 17 -85 68 -155 524 -84 551 19 8 24 20 12 34 -31 39 -42 139 -24 223 9 44 17 69 19 55 3 -33 102 12 102 47 0 46 -35 48 -50 3 -13 -42 -15 -43 -24 -6 -6 22 0 43 12 47 12 4 17 17 10 28 -7 11 9 8 35 -6 26 -14 71 -23 101 -20z m2186 -45 c120 -30 156 -105 57 -117 -47 -5 -58 -19 -80 -106 -37 -142 -29 -160 12 -30 25 75 48 112 73 117 21 4 67 29 102 55 101 76 246 44 246 -54 0 -22 9 -35 20 -28 13 8 20 -63 20 -199 0 -282 -42 -333 -215 -260 -101 42 -104 52 -105 275 0 192 -1 197 -44 190 -39 -5 -53 -37 -106 -226 -52 -190 -66 -221 -105 -226 -29 -5 -45 4 -45 23 0 16 -9 33 -19 36 -10 4 8 102 40 217 70 249 70 254 21 269 -26 9 -35 25 -28 52 12 46 23 47 156 12z m743 -65 c19 -29 36 -97 37 -155 3 -90 70 -273 101 -273 5 0 -9 36 -31 81 -25 48 -45 132 -49 205 -4 78 -1 109 10 84 9 -22 17 -75 18 -118 0 -48 24 -120 61 -185 33 -59 60 -114 60 -124 0 -26 -89 -46 -97 -22 -3 10 -19 19 -35 19 -16 0 -48 41 -72 90 -70 143 -119 120 -72 -34 19 -65 18 -83 -5 -99 -25 -17 -25 -19 1 -11 21 6 29 32 26 86 l-3 78 29 -79 c35 -96 14 -128 -66 -100 -48 17 -182 423 -185 563 -2 64 230 59 272 -6z m-687 -449 c7 -26 -4 -57 -27 -80 -39 -39 -39 -38 -39 22 0 42 7 57 23 47 16 -10 20 -4 11 19 -7 18 -5 33 4 33 10 0 22 -19 28 -41z m-289 -117 c198 -100 512 -132 714 -73 55 15 133 28 175 28 46 -1 92 13 116 35 28 26 45 29 61 13 72 -72 -323 -226 -580 -225 -330 0 -633 137 -591 266 9 26 18 34 23 18 5 -14 42 -42 82 -62z m-2158 -165 c35 -129 16 -177 -69 -177 -88 0 -108 33 -30 50 51 11 57 19 40 50 -23 42 -26 121 -7 170 17 45 36 17 66 -93z m-629 -277 c47 -52 55 -127 17 -173 -27 -35 -28 -34 -8 7 43 90 18 72 -49 -34 -111 -176 -87 -188 81 -41 126 110 207 102 201 -20 -6 -124 -378 -490 -408 -401 -6 17 0 22 15 13 17 -11 17 -3 -2 26 -23 37 -19 49 42 112 89 92 65 113 -36 33 -131 -104 -174 -71 -94 71 28 51 47 98 41 103 -18 18 -92 -63 -81 -89 5 -15 3 -25 -5 -24 -8 2 -36 -7 -64 -19 -29 -12 -37 -22 -19 -23 17 0 42 10 55 23 16 16 24 16 24 2 0 -41 -58 -73 -87 -48 -55 45 -22 117 147 317 191 227 181 219 230 165z m349 -88 c229 -118 361 -146 520 -112 138 29 164 19 109 -42 -71 -79 -208 -126 -264 -90 -15 9 -61 18 -104 20 -43 2 -95 19 -115 38 -21 18 -69 40 -106 47 -38 8 -91 34 -119 59 -27 25 -72 63 -98 84 -28 21 -42 47 -34 61 20 33 22 32 211 -65z m1572 47 c25 -41 -18 -77 -83 -72 -85 7 -123 -29 -77 -75 22 -22 68 -32 152 -32 193 0 300 -140 194 -254 -71 -75 -230 -56 -213 26 6 30 22 37 82 32 51 -4 74 2 74 21 0 52 -49 75 -156 75 -220 0 -323 132 -208 265 31 36 214 47 235 14z m-302 -205 c10 -29 11 -60 2 -69 -9 -8 -20 -4 -25 10 -5 14 -16 25 -24 25 -33 0 18 -295 71 -405 61 -129 50 -167 -42 -143 -42 10 -67 39 -102 116 -25 58 -94 149 -157 211 -121 119 -135 151 -70 172 32 10 56 -3 101 -54 l59 -67 -8 94 c-10 109 66 175 93 81 8 -28 10 -27 7 5 -8 97 62 115 95 24z m540 -38 c39 -56 40 -137 2 -187 -17 -22 -30 -28 -30 -15 -1 13 8 29 19 36 33 21 22 102 -21 157 -23 29 -33 53 -22 53 12 0 35 -20 52 -44z m-1728 -16 c29 -16 36 -36 28 -85 -8 -52 -6 -57 9 -25 33 69 23 -7 -36 -270 -54 -236 -59 -250 -103 -245 -65 8 -69 16 -66 125 4 122 -35 144 -94 54 -38 -57 -38 -59 -3 -19 22 25 52 45 67 45 18 -1 20 -5 5 -15 -12 -8 -33 -35 -46 -60 -31 -59 -97 -58 -125 3 -19 43 -6 73 131 280 155 237 166 247 233 212z m231 -75 c12 -8 30 -73 40 -145 18 -131 54 -168 63 -66 15 155 26 186 69 186 39 0 41 -8 29 -115 -41 -377 -33 -434 15 -104 33 224 41 143 11 -101 -38 -300 -38 -300 -79 -300 -21 0 -43 9 -50 20 -7 11 6 20 29 20 26 0 40 12 39 35 -1 21 -5 25 -11 10 -6 -14 -31 -25 -56 -25 -50 0 -58 17 -82 185 -22 155 -71 110 -66 -62 l3 -93 14 80 14 80 3 -73 c4 -100 -13 -137 -64 -136 -42 2 -42 2 -3 19 35 15 34 17 -15 19 -65 1 -65 -4 -25 291 16 121 29 236 30 255 0 36 52 47 92 20z m1128 -32 c0 -13 9 -10 19 6 12 19 14 -2 7 -60 -6 -49 -13 -91 -14 -92 -1 -2 -34 2 -72 10 -90 19 -112 143 -25 143 26 0 42 9 35 20 -7 11 1 14 19 8 17 -7 31 -23 31 -35z m-613 -10 c19 -21 43 -77 53 -125 l19 -88 -8 90 c-12 129 22 57 48 -101 40 -245 6 -324 -149 -348 -58 -9 -72 -7 -50 8 24 16 19 20 -24 21 -61 0 -55 -19 -107 338 -34 237 -32 241 103 242 55 0 93 -12 115 -37z m-1361 -146 c-42 -41 -106 -40 -106 2 0 11 13 15 29 9 16 -6 45 -2 65 10 55 32 59 26 12 -21z m2090 6 c31 -20 10 -83 -28 -83 -17 0 -28 21 -28 50 0 52 13 60 56 33z m-65 -105 c15 -47 -16 -90 -49 -69 -24 15 -30 77 -9 98 24 24 44 14 58 -29z m-237 -248 c9 -28 -180 -138 -314 -183 -269 -90 -811 -31 -850 93 -21 67 5 72 61 11 45 -48 62 -54 129 -43 43 7 83 4 89 -6 35 -58 467 -6 635 75 161 78 236 94 250 53z"/> <path d="M3518 5026 c-27 -70 -40 -423 -16 -437 10 -7 11 -26 1 -45 -28 -56 -14 -663 17 -754 l28 -80 15 80 c8 44 15 347 16 674 1 584 -11 693 -61 562z"/> <path d="M4220 4986 c-248 -94 -440 -515 -440 -963 0 -268 81 -545 112 -387 7 35 23 64 36 64 12 0 9 9 -8 19 -19 12 -27 42 -23 81 3 34 -5 76 -19 93 -21 24 -20 33 3 48 23 14 24 22 4 42 -28 28 -34 97 -9 97 8 0 17 18 19 40 1 22 -8 40 -21 40 -16 1 -14 7 4 18 19 13 23 38 14 90 -8 40 -6 72 3 72 9 0 18 18 20 40 10 100 10 101 42 75 26 -22 26 -19 7 18 -18 34 -17 48 5 66 16 13 24 37 18 52 -6 16 -1 29 12 29 13 0 18 9 11 19 -6 11 7 31 29 45 23 14 41 35 42 46 0 11 45 65 100 120 117 119 132 171 39 136z"/> <path d="M4551 4149 c5 -144 23 -160 32 -29 4 59 -2 111 -15 121 -15 13 -20 -15 -17 -92z"/> <path d="M2840 2887 c0 -28 119 -244 142 -258 10 -7 -14 50 -55 125 -85 156 -87 160 -87 133z"/> <path d="M1635 3983 c-5 -20 -5 -83 0 -140 6 -64 2 -103 -11 -103 -11 0 -16 -18 -10 -40 6 -22 16 -40 23 -40 7 0 13 -52 13 -115 0 -78 10 -123 30 -139 19 -16 21 -25 6 -25 -27 -1 -18 -77 14 -109 11 -11 20 -37 20 -57 0 -21 8 -32 18 -26 11 6 23 -4 28 -24 28 -106 7 136 -38 447 -29 197 -53 369 -53 383 -2 38 -29 30 -40 -12z"/> <path d="M2054 3526 c-15 -23 -64 -370 -84 -591 -8 -90 -5 -135 9 -135 11 0 21 10 21 21 0 12 10 15 23 7 14 -9 18 -5 9 8 -8 13 -4 41 8 64 12 22 25 87 30 145 4 58 14 173 21 255 12 143 -9 271 -37 226z"/> <path d="M1080 3466 c0 -76 100 -645 122 -695 12 -27 14 5 6 89 -7 72 -12 139 -12 150 0 11 2 75 5 143 2 67 -3 135 -13 150 -9 15 -18 53 -21 85 -2 33 -19 67 -36 77 -18 9 -27 26 -20 36 6 11 2 19 -10 19 -11 0 -21 -25 -21 -54z"/> <path d="M955 3356 c-7 -19 -10 -52 -5 -75 4 -22 1 -44 -7 -49 -14 -9 -10 -462 5 -582 5 -33 9 -76 10 -96 1 -20 11 -31 22 -24 12 8 19 156 18 386 -2 371 -16 511 -43 440z"/> <path d="M1492 2863 c-17 -28 42 -69 79 -55 18 7 29 23 24 37 -10 31 -87 44 -103 18z"/> <path d="M1700 2850 c0 -16 -14 -30 -32 -30 -19 0 -28 -11 -22 -28 6 -15 1 -37 -12 -50 -16 -16 -9 -22 29 -22 44 0 50 7 42 50 -7 35 -1 50 21 50 16 0 35 14 41 30 8 20 -1 30 -28 30 -21 0 -39 -13 -39 -30z"/> <path d="M1443 2762 c-37 -23 18 -43 77 -28 33 9 37 16 17 28 -34 22 -60 22 -94 0z"/> <path d="M1640 2155 c0 -58 9 -118 20 -135 14 -21 19 10 20 105 0 77 -9 135 -20 135 -11 0 -20 -47 -20 -105z"/> <path d="M1824 2191 c-13 -29 -24 -70 -24 -91 0 -21 -13 -45 -29 -55 -25 -13 -24 -20 10 -41 35 -22 39 -19 39 23 0 26 10 75 22 110 28 80 14 124 -18 54z"/> <path d="M3960 2599 c0 -182 4 -201 35 -195 29 5 37 35 45 182 12 203 9 214 -42 214 -35 0 -38 -16 -38 -201z m35 -85 c-5 -46 -8 -3 -8 96 0 99 4 137 8 84 4 -52 4 -133 0 -180z"/> <path d="M4147 2570 c0 -99 3 -142 8 -96 4 47 4 128 0 180 -4 53 -8 15 -8 -84z"/> <path d="M4326 2748 c16 -96 45 -126 84 -87 44 44 11 147 -49 156 -44 6 -46 1 -35 -69z"/> <path d="M858 1505 c-102 -108 -272 -315 -246 -300 24 15 335 375 323 375 -4 0 -39 -34 -77 -75z"/> <path d="M981 1301 c-28 -51 -26 -61 7 -61 26 0 52 41 52 82 0 32 -38 19 -59 -21z"/> <path d="M1762 1381 c-35 -21 32 -381 71 -381 47 0 53 53 27 219 -24 154 -48 193 -98 162z m65 -261 c8 -55 6 -78 -5 -60 -9 17 -22 93 -28 170 -12 143 6 84 33 -110z"/> <path d="M1983 1059 c-4 -67 -53 -134 -108 -146 -42 -9 -42 -9 3 -6 62 4 128 92 116 155 l-9 48 -2 -51z"/> <path d="M4983 5051 c72 -26 158 -64 189 -84 31 -20 59 -35 62 -32 18 15 66 2 56 -15 -7 -12 -6 -20 4 -18 53 9 89 -5 79 -31 -7 -20 1 -26 28 -21 22 4 39 1 39 -7 0 -9 20 -37 45 -64 25 -26 43 -55 40 -64 -3 -8 8 -15 25 -15 16 0 35 -25 43 -55 7 -30 29 -83 49 -118 19 -35 30 -69 23 -75 -6 -7 -1 -12 13 -12 13 0 19 -8 13 -19 -6 -10 -4 -23 6 -29 10 -6 19 -50 21 -97 2 -74 11 -143 23 -175 21 -59 -36 -198 -69 -166 -6 7 -12 2 -12 -11 0 -13 -12 -23 -28 -23 -112 0 -59 -56 63 -65 172 -14 166 -21 152 161 -53 703 -368 1084 -897 1083 l-100 0 133 -48z"/> <path d="M220 4200 c0 -535 7 -880 19 -880 17 0 49 145 41 188 -2 10 9 25 23 34 21 14 21 17 1 18 -19 0 -20 10 -4 40 12 23 16 51 8 63 -7 12 -1 29 14 39 20 13 21 17 3 18 -18 0 -25 40 -24 135 1 94 7 123 19 95 13 -31 18 -21 19 45 0 49 -8 85 -21 85 -37 0 -17 347 21 364 26 11 26 13 -4 15 -30 1 -35 22 -35 152 0 96 7 147 20 139 11 -7 20 2 20 19 0 53 -3 61 -22 56 -23 -6 -23 17 1 54 13 20 11 35 -5 45 -15 10 -8 15 19 16 24 0 47 11 52 25 10 31 255 37 255 6 1 -14 6 -14 15 -1 18 24 225 30 225 6 0 -10 17 -8 39 3 54 30 107 27 88 -4 -11 -19 -8 -20 14 -2 16 13 61 20 99 17 39 -3 84 -7 100 -8 27 -2 27 -5 0 -24 -22 -15 -14 -17 33 -8 35 7 69 4 75 -7 7 -11 30 -15 52 -9 22 6 35 19 29 28 -6 10 -3 18 8 18 25 0 51 -91 73 -260 12 -92 14 -103 40 -216 22 -96 99 -133 85 -41 -6 37 -27 191 -47 342 l-37 275 -655 0 -656 0 0 -880z"/> <path d="M2240 5014 c0 -36 -18 -191 -40 -345 -44 -315 -48 -369 -22 -369 16 0 66 112 56 127 -2 4 8 21 22 38 15 19 21 52 13 83 -8 29 -5 52 6 52 11 0 15 23 10 50 -7 38 -1 50 27 50 28 0 31 5 12 24 -32 32 -31 83 1 63 20 -12 20 -8 0 16 -19 24 -19 36 0 56 20 22 19 24 -5 10 -22 -11 -20 -5 5 24 19 22 28 48 20 57 -8 9 -3 9 12 1 16 -10 34 -5 44 10 10 17 72 28 182 31 92 3 169 7 172 9 6 4 16 8 80 29 102 33 5 50 -286 50 l-309 0 0 -66z"/> <path d="M5520 2975 c0 -7 9 -35 20 -64 13 -34 12 -51 -2 -51 -11 0 -15 -9 -8 -20 7 -12 21 -15 31 -9 11 6 19 -3 19 -20 0 -17 9 -31 20 -31 11 0 20 -10 20 -21 0 -12 -7 -17 -17 -11 -9 6 -16 -3 -16 -19 0 -20 12 -26 39 -17 24 7 34 4 27 -8 -7 -11 1 -46 17 -77 16 -31 24 -73 18 -92 -6 -19 -1 -35 11 -35 11 0 21 -13 21 -30 0 -16 8 -30 18 -30 10 0 15 -36 12 -80 -5 -57 0 -76 17 -66 14 8 13 1 -3 -18 -17 -22 -19 -37 -5 -45 12 -8 21 -22 21 -33 0 -11 -11 -14 -25 -5 -17 10 -16 4 2 -19 24 -29 24 -34 0 -34 -21 -1 -21 -5 3 -20 24 -15 24 -19 3 -20 -21 0 -22 -7 -6 -26 16 -19 16 -33 1 -48 -15 -15 -15 -25 0 -35 12 -7 22 -22 22 -33 0 -11 -11 -14 -25 -5 -18 11 -18 6 1 -18 20 -24 21 -43 5 -72 -26 -50 -27 -69 -1 -53 11 7 20 3 20 -8 0 -11 -9 -25 -21 -33 -15 -9 -15 -20 0 -38 11 -13 14 -31 6 -39 -7 -8 -15 -38 -17 -68 -1 -30 -4 -54 -7 -54 -2 0 -7 -35 -12 -78 -4 -44 -18 -85 -31 -93 -13 -8 -16 -26 -7 -40 9 -16 7 -20 -6 -12 -22 14 -40 -23 -57 -120 -11 -57 -238 -286 -284 -287 -15 0 -21 -8 -15 -18 10 -16 -52 -35 -160 -49 -23 -3 -50 -10 -60 -16 -10 -6 -64 -9 -119 -8 -55 1 -107 -7 -117 -19 -10 -13 -19 -12 -26 5 -6 14 -25 25 -44 25 -28 -1 -29 -3 -3 -20 18 -12 20 -20 6 -20 -13 0 -28 7 -33 15 -5 9 -51 15 -102 13 -51 -1 -96 4 -102 13 -9 15 -204 50 -234 43 -8 -2 -13 7 -10 21 3 14 -6 23 -20 20 -14 -3 -25 5 -25 16 0 12 -8 16 -19 10 -10 -6 -25 -1 -33 12 -8 14 -6 18 8 10 11 -8 27 -4 34 7 7 12 6 20 -4 18 -49 -9 -127 5 -117 20 6 10 -3 23 -20 30 -18 6 -26 21 -19 32 7 12 1 19 -14 15 -14 -3 -25 11 -23 30 1 19 -5 30 -14 24 -19 -11 -106 166 -129 261 -7 33 -19 78 -24 100 -6 22 -13 63 -15 91 -5 59 -71 179 -98 179 -48 0 40 -427 121 -588 99 -195 331 -380 526 -420 250 -50 311 -55 500 -46 587 29 853 328 922 1034 37 376 -9 679 -145 942 -65 127 -197 296 -197 253z"/> <path d="M5015 2052 c44 -298 5 -478 -112 -513 -163 -49 -283 59 -283 254 0 59 -7 107 -15 107 -24 0 -84 -118 -66 -130 10 -5 13 -28 7 -50 -6 -22 -1 -52 11 -67 13 -15 17 -33 9 -40 -7 -7 -2 -13 11 -13 12 0 23 -10 23 -21 0 -87 211 -157 325 -110 39 16 75 25 81 19 6 -6 17 10 25 35 8 26 24 53 35 60 29 19 36 65 34 212 -1 76 7 125 20 125 15 0 15 12 0 40 -12 23 -17 49 -11 59 7 10 3 24 -8 30 -10 7 -14 27 -7 45 9 22 5 28 -11 18 -13 -8 -23 -3 -23 13 0 16 -14 28 -30 28 -25 0 -28 -17 -15 -101z"/> <path d="M3521 1861 c-30 -19 -45 -262 -44 -706 0 -107 -9 -200 -19 -206 -10 -7 -14 -19 -8 -28 5 -10 -51 -18 -125 -19 -450 -5 -458 -4 -437 51 7 16 3 24 -8 17 -11 -7 -20 2 -20 19 0 72 -60 30 -61 -44 -1 -41 -6 -95 -10 -120 l-9 -45 400 0 400 0 -2 505 c-2 536 -9 606 -57 576z"/> <path d="M235 1148 c-8 -8 -15 -94 -15 -191 l0 -177 195 2 c107 2 177 7 155 13 -22 5 -58 22 -79 37 -22 16 -60 28 -85 28 -26 0 -46 10 -46 21 0 12 -11 15 -25 7 -14 -8 -18 -7 -10 2 8 9 5 28 -6 41 -12 14 -25 47 -30 72 -20 103 -41 159 -54 145z"/> </g> </svg> 